<svg version="1.1" xmlns="http://www.w3.org/2000/svg" viewBox="0 0 337 204" width="337" height="204" class="excalidraw-svg"><!-- svg-source:excalidraw --><metadata></metadata><defs><style class="style-fonts">
      </style></defs><rect x="0" y="0" width="337" height="204" fill="#121212"></rect><g stroke-linecap="round" transform="translate(10 10) rotate(0 158.5 92)"><path d="M32 0 C126.07 0.89, 220.37 1.4, 285 0 M32 0 C112.93 1.12, 192.65 1.3, 285 0 M285 0 C306.41 1.84, 318.03 12.26, 317 32 M285 0 C306.44 1.98, 319.22 9.06, 317 32 M317 32 C316.76 75.49, 319.89 115.02, 317 152 M317 32 C317.9 57.2, 316.83 80.15, 317 152 M317 152 C316.17 173.63, 305.36 184.69, 285 184 M317 152 C315.14 172.45, 307.32 183.7, 285 184 M285 184 C192.44 185.44, 103.39 183.73, 32 184 M285 184 C231.11 185.53, 178.3 185.26, 32 184 M32 184 C10.43 182.68, -1.08 174.18, 0 152 M32 184 C11.02 183.73, 0.26 174.36, 0 152 M0 152 C1.31 118.31, -1.5 87.15, 0 32 M0 152 C-1.31 104.95, -1.71 57.14, 0 32 M0 32 C-0.26 11.77, 12.06 -1.19, 32 0 M0 32 C0.64 12.28, 10.66 -2.01, 32 0" stroke="#d3d3d3" stroke-width="2" fill="none"></path></g><g stroke-linecap="round" transform="translate(52.125 48.04296875) rotate(0 91.75 32.75)"><path d="M16.38 0 C60.85 -1.9, 107.78 -1.51, 167.13 0 M16.38 0 C70.01 1.37, 123.79 0.61, 167.13 0 M167.13 0 C176.61 0.64, 184.11 5.63, 183.5 16.38 M167.13 0 C179.56 1.92, 184.59 5.49, 183.5 16.38 M183.5 16.38 C184.81 27.89, 183.13 39.29, 183.5 49.13 M183.5 16.38 C183.61 27.58, 182.44 39.69, 183.5 49.13 M183.5 49.13 C184.34 60.45, 178.17 67.27, 167.13 65.5 M183.5 49.13 C182.54 61.1, 178.19 63.7, 167.13 65.5 M167.13 65.5 C116.29 62.55, 66.61 62.69, 16.38 65.5 M167.13 65.5 C112.06 67.28, 57.08 67.03, 16.38 65.5 M16.38 65.5 C5.09 66.02, -0.91 61.99, 0 49.13 M16.38 65.5 C5.08 66.1, -0.31 60.39, 0 49.13 M0 49.13 C-1.67 38.95, -0.83 31.42, 0 16.38 M0 49.13 C-0.83 36.62, 0.21 23.93, 0 16.38 M0 16.38 C-1.01 3.95, 6.08 1.71, 16.38 0 M0 16.38 C2.1 5.77, 4.72 -0.62, 16.38 0" stroke="#d3d3d3" stroke-width="2" fill="none"></path></g></svg>